<svg xmlns="http://www.w3.org/2000/svg" xmlns:xlink="http://www.w3.org/1999/xlink" version="1.1" x="0px" y="0px" viewBox="0 0 100 125" enable-background="new 0 0 100 100" xml:space="preserve"><g><g><path d="M65.443,30.196L50.3,45.339L34.803,29.842c-2.683-2.683-7.397,2.032-4.714,4.714l15.498,15.498L30.088,65.551    c-2.683,2.684,2.032,7.397,4.715,4.715L50.3,54.769l15.143,15.143c3.155,3.154,7.869-1.56,4.714-4.715L55.015,50.054L70.158,34.91    C73.313,31.756,68.599,27.041,65.443,30.196z M81.819,18.18c-17.545-17.545-46.096-17.546-63.639,0    c-17.547,17.546-17.547,46.095,0,63.639c17.544,17.547,46.094,17.548,63.639,0C99.365,64.275,99.365,35.725,81.819,18.18z     M77.104,77.106c-14.947,14.948-39.267,14.948-54.211,0c-14.948-14.945-14.947-39.265,0-54.211    C37.841,7.947,62.157,7.948,77.104,22.896C92.05,37.842,92.053,62.161,77.104,77.106z"/></g></g><text x="0" y="115" fill="#000000" font-size="5px" font-weight="bold" font-family="'Helvetica Neue', Helvetica, Arial-Unicode, Arial, Sans-serif">Created by Julien Duquesnoy</text><text x="0" y="120" fill="#000000" font-size="5px" font-weight="bold" font-family="'Helvetica Neue', Helvetica, Arial-Unicode, Arial, Sans-serif">from the Noun Project</text></svg>